<svg width="14" height="14" viewBox="0 0 14 14" fill="none" xmlns="http://www.w3.org/2000/svg">
<path fill-rule="evenodd" clip-rule="evenodd" d="M7.00003 9.33328C6.86703 9.33328 6.73461 9.28837 6.6267 9.19795L3.1267 6.28128C2.87936 6.07537 2.84553 5.70728 3.05203 5.45995C3.25795 5.21262 3.62545 5.17937 3.87336 5.38528L7.00645 7.99628L10.1343 5.4792C10.3851 5.27737 10.7526 5.31703 10.9544 5.56787C11.1563 5.8187 11.1166 6.18562 10.8658 6.38803L7.36578 9.20437C7.25903 9.29012 7.12953 9.33328 7.00003 9.33328Z" fill="white"/>
<mask id="mask0" mask-type="alpha" maskUnits="userSpaceOnUse" x="2" y="5" width="10" height="5">
<path fill-rule="evenodd" clip-rule="evenodd" d="M7.00003 9.33328C6.86703 9.33328 6.73461 9.28837 6.6267 9.19795L3.1267 6.28128C2.87936 6.07537 2.84553 5.70728 3.05203 5.45995C3.25795 5.21262 3.62545 5.17937 3.87336 5.38528L7.00645 7.99628L10.1343 5.4792C10.3851 5.27737 10.7526 5.31703 10.9544 5.56787C11.1563 5.8187 11.1166 6.18562 10.8658 6.38803L7.36578 9.20437C7.25903 9.29012 7.12953 9.33328 7.00003 9.33328Z" fill="white"/>
</mask>
<g mask="url(#mask0)">
<rect width="14" height="14" fill="white"/>
</g>
</svg>
