<svg width="24" height="24" viewBox="0 0 24 24" fill="none" xmlns="http://www.w3.org/2000/svg">
<path d="M13 8H11V13H16V11H13V8Z" fill="#9254FF"/>
<path d="M19.999 12C19.999 9.047 18.387 6.47 16 5.084V3C16 2.447 15.553 2 15 2H9C8.448 2 8 2.447 8 3V5.083C5.613 6.469 4.001 9.047 4.001 12C4.001 15.011 5.674 17.635 8.137 19H8V21.041C8 21.594 8.448 22.041 9 22.041H15C15.553 22.041 16 21.594 16 21.041V19H15.861C18.326 17.635 19.999 15.011 19.999 12ZM11.999 17.999C8.692 17.999 6.001 15.309 6.001 12C6.001 8.692 8.692 6.001 11.999 6.001C15.309 6.001 17.999 8.692 17.999 12C17.999 15.309 15.309 17.999 11.999 17.999Z" fill="#9254FF"/>
</svg>
