<svg width="20" height="20" viewBox="0 0 20 20" fill="none" xmlns="http://www.w3.org/2000/svg">
<path d="M9.99996 18.3334C14.595 18.3334 18.3333 14.5951 18.3333 10.0001C18.3333 5.40508 14.595 1.66675 9.99996 1.66675C5.40496 1.66675 1.66663 5.40508 1.66663 10.0001C1.66663 14.5951 5.40496 18.3334 9.99996 18.3334ZM12.9108 7.50008C13.5975 7.50008 14.155 8.05758 14.155 8.74425C14.155 9.43091 13.5975 9.98841 12.9108 9.98841C12.2241 9.98841 11.6666 9.43091 11.6666 8.74425C11.6666 8.05758 12.2241 7.50008 12.9108 7.50008ZM9.32663 13.2659C9.76746 13.3551 10.2308 13.3551 10.6733 13.2659C10.8841 13.2226 11.0941 13.1567 11.2983 13.0717C11.4933 12.9884 11.685 12.8851 11.8641 12.7651C12.0375 12.6467 12.2033 12.5101 12.3566 12.3576C12.5091 12.2059 12.6458 12.0401 12.7641 11.8642L14.1458 12.7951C13.9666 13.0609 13.7608 13.3109 13.5341 13.5376C13.3083 13.7634 13.0591 13.9692 12.7966 14.1459C12.5283 14.3276 12.2425 14.4817 11.9458 14.6076C11.6391 14.7359 11.3241 14.8342 11.0058 14.8992C10.6758 14.9659 10.3366 15.0001 9.99996 15.0001C9.66329 15.0001 9.32413 14.9659 8.99413 14.8984C8.67496 14.8342 8.35996 14.7359 8.05496 14.6076C7.75746 14.4817 7.47163 14.3267 7.20413 14.1459C6.94079 13.9676 6.69163 13.7626 6.46413 13.5351C6.23829 13.3101 6.03163 13.0609 5.85329 12.7942L7.23496 11.8634C7.35413 12.0392 7.49079 12.2051 7.64163 12.3551C7.79579 12.5101 7.96163 12.6467 8.13663 12.7651C8.31413 12.8851 8.50496 12.9884 8.70246 13.0717C8.90579 13.1567 9.11496 13.2226 9.32663 13.2659ZM7.08329 7.50008C7.77329 7.50008 8.33329 8.06008 8.33329 8.75008C8.33329 9.44008 7.77329 10.0001 7.08329 10.0001C6.39329 10.0001 5.83329 9.44008 5.83329 8.75008C5.83329 8.06008 6.39329 7.50008 7.08329 7.50008Z" fill="#5D6488"/>
</svg>
