<svg width="12" height="12" viewBox="0 0 12 12" fill="none" xmlns="http://www.w3.org/2000/svg">
<path d="M6 12C9.31371 12 12 9.31371 12 6C12 2.68629 9.31371 0 6 0C2.68629 0 0 2.68629 0 6C0 9.31371 2.68629 12 6 12Z" fill="#3464FF"/>
<path d="M5.54625 8.625H4.872L4.46625 7.03125L5.45813 6.513L5.781 7.4355L6.02137 6.21863L7.3395 5.52975L7.26675 5.89575L8.028 5.90287C8.322 5.89838 8.54963 5.799 8.71163 5.6055C8.87363 5.41162 8.9505 5.15175 8.94225 4.82437C8.94094 4.78224 8.93655 4.74025 8.92913 4.69875L9.95288 4.16362C10.0946 4.42425 10.1486 4.73137 10.1156 5.08425C10.0609 5.59875 9.83812 6.0105 9.4485 6.31912C9.05887 6.62812 8.562 6.78262 7.95862 6.78262L7.09387 6.77887L6.7275 8.625H5.54625ZM5.70413 4.50375H6.36038L5.349 5.93813L2.8515 7.2435L3.777 5.93475L2.8875 3.375H4.1925L4.65375 5.17087L5.04825 4.50337H5.7045H5.04825L5.7525 3.375H6.58313L8.50537 3.37875C8.94225 3.39075 9.30038 3.50663 9.58013 3.72638L8.53012 4.27538C8.50434 4.27059 8.47829 4.26733 8.45212 4.26562L7.59188 4.25812L7.47937 4.82437L6.1605 5.51363L6.36 4.50337L5.70413 4.50375ZM2.16975 8.232L4.16738 7.18762L3.28688 8.625H1.875L2.16263 8.21813L2.16975 8.232Z" fill="white"/>
</svg>
