<svg width="20" height="20" viewBox="0 0 20 20" fill="none" xmlns="http://www.w3.org/2000/svg">
<path d="M18.325 2.25H17.4H15.55H4.45H2.6H1.675C1.16348 2.25 0.75 2.74489 0.75 3.35714V4.46429V6.60993V7.78571H1.57602C2.49732 7.78571 3.35203 8.53968 3.50003 9.628C3.68872 11.0152 2.79888 12.2143 1.675 12.2143H0.75V13.3901V15.5357V16.6429C0.75 17.2551 1.16348 17.75 1.675 17.75H2.6H4.45H15.55H17.4H18.325C18.8365 17.75 19.25 17.2551 19.25 16.6429V15.5357V13.3901V12.2143C19.25 12.2143 18.8365 12.2143 18.325 12.2143C17.2011 12.2143 16.3113 11.0152 16.5 9.628C16.648 8.53968 17.5027 7.78571 18.424 7.78571H19.25V6.60993V4.46429V3.35714C19.25 2.74489 18.8365 2.25 18.325 2.25ZM9.075 15.5357H7.225V13.3214H9.075V15.5357ZM9.075 11.1071H7.225V8.89286H9.075V11.1071ZM9.075 6.67857H7.225V4.46429H9.075V6.67857Z" fill="white"/>
</svg>
