<svg width="20" height="20" viewBox="0 0 20 20" fill="none" xmlns="http://www.w3.org/2000/svg">
<path d="M10 1.66663C5.405 1.66663 1.66667 5.40496 1.66667 9.99996C1.66667 14.595 5.405 18.3333 10 18.3333C14.595 18.3333 18.3333 14.595 18.3333 9.99996C18.3333 5.40496 14.595 1.66663 10 1.66663ZM10.8333 15H9.16667V13.3333H10.8333V15ZM11.6467 10.9291C11.4833 11.0608 11.3258 11.1866 11.2008 11.3116C10.8608 11.6508 10.8342 11.9591 10.8333 11.9725V12.0833H9.16667V11.9441C9.16667 11.8458 9.19083 10.9633 10.0217 10.1325C10.1842 9.96996 10.3858 9.80496 10.5975 9.63329C11.2092 9.13746 11.6108 8.77579 11.6108 8.27746C11.6117 7.38913 10.8883 6.66663 10 6.66663C9.11167 6.66663 8.38833 7.38913 8.38833 8.27829H6.72167C6.72167 6.47079 8.1925 4.99996 10 4.99996C11.8075 4.99996 13.2783 6.47079 13.2783 8.27829C13.2783 9.60913 12.2958 10.4033 11.6467 10.9291Z" fill="white"/>
</svg>
