<svg width="20" height="20" viewBox="0 0 20 20" fill="none" xmlns="http://www.w3.org/2000/svg">
<path d="M8 10.5C9.91187 10.5 11.4667 8.93025 11.4667 7C11.4667 5.06975 9.91187 3.5 8 3.5C6.08813 3.5 4.53333 5.06975 4.53333 7C4.53333 8.93025 6.08813 10.5 8 10.5ZM9.3 11.375H6.7C3.8322 11.375 1.5 13.7296 1.5 16.625V17.5H14.5V16.625C14.5 13.7296 12.1678 11.375 9.3 11.375Z" fill="white"/>
<path d="M14.6043 9.40669C15.1396 8.50479 15.3771 7.45388 15.2698 6.39159C15.1112 4.82794 14.2286 3.44573 12.7859 2.5L11.8066 3.96022C12.7983 4.61057 13.4018 5.53702 13.5063 6.56688C13.6038 7.5354 13.2582 8.48989 12.5563 9.18406L11.5 10.2288L12.9339 10.6452C16.6842 11.732 16.7276 15.4623 16.7276 15.5H18.5C18.5 13.932 17.6528 10.8678 14.6043 9.40669Z" fill="white"/>
</svg>
