<svg width="20" height="20" viewBox="0 0 20 20" fill="none" xmlns="http://www.w3.org/2000/svg">
<path d="M4.16667 17.5H15.8333C16.7533 17.5 17.5 16.7533 17.5 15.8333V6.66667C17.5 6.20584 17.1275 5.83334 16.6667 5.83334H14.1667V5.18584C14.1667 3.01167 12.5808 1.06501 10.4167 0.854174C7.93333 0.61084 5.83333 2.56501 5.83333 5.00001V5.83334H3.33333C2.8725 5.83334 2.5 6.20584 2.5 6.66667V15.8333C2.5 16.7533 3.24667 17.5 4.16667 17.5ZM14.1667 7.50001V9.16667H12.5V7.50001H14.1667ZM7.5 5.00001C7.5 3.62167 8.62167 2.50001 10 2.50001C11.3783 2.50001 12.5 3.62167 12.5 5.00001V5.83334H7.5V5.00001ZM5.83333 7.50001H7.5V9.16667H5.83333V7.50001Z" fill="white"/>
</svg>
