<svg width="20" height="20" viewBox="0 0 20 20" fill="none" xmlns="http://www.w3.org/2000/svg">
<path d="M4.16666 10H3.33332V16.6667C3.33332 17.5867 4.07999 18.3333 4.99999 18.3333H9.16666V10H4.99999H4.16666ZM15 10H10.8333V18.3333H15C15.92 18.3333 16.6667 17.5867 16.6667 16.6667V10H15.8333H15ZM15.6592 5.83333C15.7683 5.49083 15.8333 5.08 15.8333 4.58333C15.8333 2.975 14.525 1.66667 12.9167 1.66667C11.565 1.66667 10.6625 2.90167 10.08 4.2375C9.50582 2.975 8.55749 1.66667 7.08332 1.66667C5.47499 1.66667 4.16666 2.975 4.16666 4.58333C4.16666 5.08 4.23249 5.49083 4.34082 5.83333H1.66666V9.16667H9.16666V7.5H9.99999H10.8333V7.57583V9.16667H18.3333V5.83333H15.6592ZM5.83332 4.58333C5.83332 3.89417 6.39416 3.33333 7.08332 3.33333C7.82332 3.33333 8.51166 4.60417 8.91499 5.83333H6.66666C6.35499 5.83333 5.83332 5.83333 5.83332 4.58333ZM12.9167 3.33333C13.6058 3.33333 14.1667 3.89417 14.1667 4.58333C14.1667 5.83333 13.645 5.83333 13.3333 5.83333H11.2692C11.6942 4.52 12.3117 3.33333 12.9167 3.33333Z" fill="white"/>
</svg>
