<svg width="20" height="20" viewBox="0 0 20 20" fill="none" xmlns="http://www.w3.org/2000/svg">
<path d="M10 1.66667C5.40502 1.66667 1.66669 5.405 1.66669 10C1.66669 14.595 5.40502 18.3333 10 18.3333C14.595 18.3333 18.3334 14.595 18.3334 10C18.3334 5.405 14.595 1.66667 10 1.66667ZM10.8334 15H9.16669V13.3333H10.8334V15ZM11.6467 10.9292C11.4834 11.0608 11.3259 11.1867 11.2009 11.3117C10.8609 11.6508 10.8342 11.9592 10.8334 11.9725V12.0833H9.16669V11.9442C9.16669 11.8458 9.19085 10.9633 10.0217 10.1325C10.1842 9.97 10.3859 9.805 10.5975 9.63333C11.2092 9.1375 11.6109 8.77583 11.6109 8.2775C11.6117 7.38917 10.8884 6.66667 10 6.66667C9.11169 6.66667 8.38835 7.38917 8.38835 8.27833H6.72169C6.72169 6.47083 8.19252 5 10 5C11.8075 5 13.2784 6.47083 13.2784 8.27833C13.2784 9.60917 12.2959 10.4033 11.6467 10.9292Z" fill="white"/>
</svg>
