<svg width="20" height="20" viewBox="0 0 20 20" fill="none" xmlns="http://www.w3.org/2000/svg">
<path d="M3.33333 9.16667H8.33333C8.79417 9.16667 9.16667 8.79417 9.16667 8.33333V3.33333C9.16667 2.8725 8.79417 2.5 8.33333 2.5H3.33333C2.8725 2.5 2.5 2.8725 2.5 3.33333V8.33333C2.5 8.79417 2.8725 9.16667 3.33333 9.16667ZM11.6667 9.16667H16.6667C17.1275 9.16667 17.5 8.79417 17.5 8.33333V3.33333C17.5 2.8725 17.1275 2.5 16.6667 2.5H11.6667C11.2058 2.5 10.8333 2.8725 10.8333 3.33333V8.33333C10.8333 8.79417 11.2058 9.16667 11.6667 9.16667ZM3.33333 17.5H8.33333C8.79417 17.5 9.16667 17.1275 9.16667 16.6667V11.6667C9.16667 11.2058 8.79417 10.8333 8.33333 10.8333H3.33333C2.8725 10.8333 2.5 11.2058 2.5 11.6667V16.6667C2.5 17.1275 2.8725 17.5 3.33333 17.5ZM14.1667 17.5C16.005 17.5 17.5 16.005 17.5 14.1667C17.5 12.3283 16.005 10.8333 14.1667 10.8333C12.3283 10.8333 10.8333 12.3283 10.8333 14.1667C10.8333 16.005 12.3283 17.5 14.1667 17.5Z" fill="#fff"/>
</svg>
