<svg width="24" height="24" viewBox="0 0 24 24" fill="none" xmlns="http://www.w3.org/2000/svg">
<path d="M16 2H8C4.691 2 2 4.691 2 8V21C2 21.552 2.447 22 3 22H16C19.309 22 22 19.309 22 16V8C22 4.691 19.309 2 16 2ZM11 12.5C11 13.329 10.328 14 9.5 14C9.414 14 9.332 13.989 9.25 13.975C9.167 13.985 9.086 14 9 14C7.896 14 7 13.104 7 12C7 10.896 7.896 10 9 10C10.104 10 11 10.896 11 12C11 12.085 10.985 12.167 10.975 12.25C10.988 12.332 11 12.414 11 12.5ZM15 14C14.914 14 14.833 13.985 14.75 13.975C14.668 13.989 14.586 14 14.5 14C13.672 14 13 13.329 13 12.5C13 12.415 13.012 12.332 13.025 12.25C13.015 12.167 13 12.086 13 12C13 10.896 13.896 10 15 10C16.104 10 17 10.896 17 12C17 13.104 16.104 14 15 14Z" fill="white"/>
</svg>
