<svg width="20" height="20" viewBox="0 0 20 20" fill="none" xmlns="http://www.w3.org/2000/svg">
<path d="M15.8333 7.91667V5.41667C15.8333 4.4975 15.0858 3.75 14.1667 3.75H11.6667C11.6667 2.37167 10.545 1.25 9.16667 1.25C7.78833 1.25 6.66667 2.37167 6.66667 3.75H4.16667C3.2475 3.75 2.5 4.4975 2.5 5.41667V8.75H3.33333C4.25333 8.75 5 9.49667 5 10.4167C5 11.3367 4.25333 12.0833 3.33333 12.0833H2.5V15.4167C2.5 16.3358 3.2475 17.0833 4.16667 17.0833H7.5V16.25C7.5 15.33 8.24667 14.5833 9.16667 14.5833C10.0867 14.5833 10.8333 15.33 10.8333 16.25V17.0833H14.1667C15.0858 17.0833 15.8333 16.3358 15.8333 15.4167V12.9167C17.2117 12.9167 18.3333 11.795 18.3333 10.4167C18.3333 9.03833 17.2117 7.91667 15.8333 7.91667Z" fill="white"/>
</svg>
