<svg width="4" height="12" viewBox="0 0 4 12" fill="none" xmlns="http://www.w3.org/2000/svg">
<path d="M1.99999 4.66667C1.26666 4.66667 0.666656 5.26667 0.666656 6C0.666656 6.73334 1.26666 7.33334 1.99999 7.33334C2.73332 7.33334 3.33332 6.73334 3.33332 6C3.33332 5.26667 2.73332 4.66667 1.99999 4.66667ZM1.99999 0.666672C1.26666 0.666672 0.666656 1.26667 0.666656 2.00001C0.666656 2.73334 1.26666 3.33334 1.99999 3.33334C2.73332 3.33334 3.33332 2.73334 3.33332 2.00001C3.33332 1.26667 2.73332 0.666672 1.99999 0.666672ZM1.99999 8.66667C1.26666 8.66667 0.666656 9.26667 0.666656 10C0.666656 10.7333 1.26666 11.3333 1.99999 11.3333C2.73332 11.3333 3.33332 10.7333 3.33332 10C3.33332 9.26667 2.73332 8.66667 1.99999 8.66667Z" fill="white"/>
</svg>
