<svg width="16" height="18" viewBox="0 0 16 18" fill="none" xmlns="http://www.w3.org/2000/svg">
<path d="M8 17.3333C9.0925 17.3333 10.0058 16.6383 10.3483 15.6667H5.65167C5.99417 16.6383 6.9075 17.3333 8 17.3333ZM13.8333 11.155V7.33333C13.8333 4.6525 12.0125 2.39417 9.54583 1.715C9.30167 1.1 8.705 0.666666 8 0.666666C7.295 0.666666 6.69833 1.1 6.45417 1.715C3.9875 2.395 2.16667 4.6525 2.16667 7.33333V11.155L0.744167 12.5775C0.5875 12.7333 0.5 12.945 0.5 13.1667V14C0.5 14.4608 0.8725 14.8333 1.33333 14.8333H14.6667C15.1275 14.8333 15.5 14.4608 15.5 14V13.1667C15.5 12.945 15.4125 12.7333 15.2558 12.5775L13.8333 11.155Z" fill="#5D6488"/>
</svg>
