<svg width="14" height="14" viewBox="0 0 14 14" fill="none" xmlns="http://www.w3.org/2000/svg">
<path d="M12.25 2.33335H10.5V1.75002C10.5 1.42744 10.2392 1.16669 9.91667 1.16669H4.08333C3.76075 1.16669 3.5 1.42744 3.5 1.75002V2.33335H1.75C1.42741 2.33335 1.16666 2.5941 1.16666 2.91669V4.66669C1.16666 7.18085 2.21608 8.69752 3.97775 8.75702C4.49108 9.63727 5.37541 10.2719 6.41666 10.4475V11.6667H5.25V12.8334H8.75V11.6667H7.58333V10.4475C8.624 10.2714 9.50891 9.63669 10.0222 8.75702C11.7839 8.69752 12.8333 7.18085 12.8333 4.66669V2.91669C12.8333 2.5941 12.5726 2.33335 12.25 2.33335ZM2.33333 4.66669V3.50002H3.5V7.01227V7.48419C2.45933 7.04552 2.33333 5.42444 2.33333 4.66669ZM10.5 7.48419V7.01227V3.50002H11.6667V4.66669C11.6667 5.42444 11.5407 7.04552 10.5 7.48419Z" fill="#5D6488"/>
</svg>
