<svg width="14" height="14" viewBox="0 0 14 14" fill="none" xmlns="http://www.w3.org/2000/svg">
<path d="M4.57713 1L2.4118 4.78933H1.58346C1.40146 4.78933 1.23055 4.8745 1.11971 5.01858C1.00946 5.16325 0.972712 5.35108 1.02055 5.52608L2.6533 11.5128C2.79096 12.0192 3.25413 12.3727 3.77913 12.3727H9.88838C10.4122 12.3727 10.8754 12.0197 11.0142 11.5122L12.647 5.5255C12.6948 5.3505 12.6586 5.16267 12.5478 5.018C12.4364 4.8745 12.2655 4.78933 12.0835 4.78933H11.2551L9.0898 1L8.07713 1.57867L9.91171 4.78933H3.75521L5.5898 1.57867L4.57713 1ZM8.00013 7.12267H9.1668V10.0393H8.00013V7.12267ZM4.50013 7.12267H5.6668V10.0393H4.50013V7.12267Z" fill="#5D6488"/>
</svg>
