<svg width="12" height="12" viewBox="0 0 12 12" fill="none" xmlns="http://www.w3.org/2000/svg">
<path d="M10.9735 4.5895C10.909 4.4005 10.7385 4.267 10.5395 4.2515L7.68899 4.025L6.45549 1.2945C6.37499 1.115 6.19649 1 5.99999 1C5.80349 1 5.62499 1.115 5.54449 1.294L4.31099 4.025L1.46049 4.2515C1.26499 4.267 1.09649 4.3955 1.02999 4.58C0.963489 4.7645 1.01049 4.971 1.15099 5.108L3.25749 7.1615L2.51249 10.3875C2.46649 10.587 2.54699 10.7945 2.71549 10.911C2.80149 10.97 2.90049 11 2.99999 11C3.09649 11 3.19349 10.972 3.27749 10.916L5.99999 9.101L8.72249 10.916C8.89649 11.032 9.12499 11.0275 9.29499 10.904C9.46399 10.7805 9.53849 10.564 9.48099 10.363L8.56649 7.163L10.8345 5.122C10.983 4.988 11.0375 4.779 10.9735 4.5895Z" fill="#F9AC39"/>
</svg>
