<svg width="36" height="36" viewBox="0 0 36 36" fill="none" xmlns="http://www.w3.org/2000/svg">
<path d="M23.676 23.7644C23.676 23.7644 27.9585 19.4819 29.4225 18.0209C34.017 13.4264 31.719 4.23441 31.719 4.23441C31.719 4.23441 22.527 1.93641 17.9325 6.53241C14.4975 9.96741 12.2085 12.3329 12.2085 12.3329C12.2085 12.3329 6.44401 11.1269 2.99701 14.5739L21.3795 32.9564C24.8265 29.5094 23.676 23.7644 23.676 23.7644ZM21.423 10.2869C22.596 9.11391 24.4935 9.11391 25.665 10.2869C26.838 11.4584 26.838 13.3559 25.665 14.5289C24.4935 15.7004 22.596 15.7004 21.423 14.5289C20.2515 13.3559 20.2515 11.4599 21.423 10.2869ZM4.45351 31.4534C4.45351 31.4534 8.95351 31.4534 11.9535 28.4534L7.45351 23.9534C4.45351 25.4534 4.45351 31.4534 4.45351 31.4534Z" fill="#3464FF"/>
</svg>
