<svg width="36" height="36" viewBox="0 0 36 36" fill="none" xmlns="http://www.w3.org/2000/svg">
<path d="M18 15C23.964 15 30 12.939 30 9C30 5.061 23.964 3 18 3C12.036 3 6 5.061 6 9C6 12.939 12.036 15 18 15Z" fill="#F9AC39"/>
<path d="M18 21C12.036 21 6 18.939 6 15V12C6 15.939 12.036 18 18 18C23.964 18 30 15.939 30 12V15C30 18.939 23.964 21 18 21Z" fill="#F9AC39"/>
<path d="M6 21C6 24.939 12.036 27 18 27C23.964 27 30 24.939 30 21V18C30 21.939 23.964 24 18 24C12.036 24 6 21.939 6 18V21Z" fill="#F9AC39"/>
<path d="M6 27C6 30.939 12.036 33 18 33C23.964 33 30 30.939 30 27V24C30 27.939 23.964 30 18 30C12.036 30 6 27.939 6 24V27Z" fill="#F9AC39"/>
</svg>
