<svg width="9" height="9" viewBox="0 0 9 9" fill="none" xmlns="http://www.w3.org/2000/svg">
<path fill-rule="evenodd" clip-rule="evenodd" d="M5.27841 3.14176H3.69496C3.51983 3.14176 3.37827 3.0002 3.37827 2.82507C3.37827 2.64994 3.51983 2.50838 3.69496 2.50838H5.27841C5.45354 2.50838 5.59511 2.64994 5.59511 2.82507C5.59511 3.0002 5.45354 3.14176 5.27841 3.14176M4.48669 6.30868C4.22447 6.30868 4.01165 6.09586 4.01165 5.83364C4.01165 5.57142 4.22447 5.3586 4.48669 5.3586C4.74891 5.3586 4.96172 5.57142 4.96172 5.83364C4.96172 6.09586 4.74891 6.30868 4.48669 6.30868M6.07014 1.24161H2.90323C2.37942 1.24161 1.95316 1.66787 1.95316 2.19168V6.62536C1.95316 7.14917 2.37942 7.57543 2.90323 7.57543H6.07014C6.59395 7.57543 7.02022 7.14917 7.02022 6.62536V2.19168C7.02022 1.66787 6.59395 1.24161 6.07014 1.24161" fill="#5D6488"/>
<mask id="mask0" mask-type="alpha" maskUnits="userSpaceOnUse" x="1" y="1" width="7" height="7">
<path fill-rule="evenodd" clip-rule="evenodd" d="M5.27841 3.14176H3.69496C3.51983 3.14176 3.37827 3.0002 3.37827 2.82507C3.37827 2.64994 3.51983 2.50838 3.69496 2.50838H5.27841C5.45354 2.50838 5.59511 2.64994 5.59511 2.82507C5.59511 3.0002 5.45354 3.14176 5.27841 3.14176M4.48669 6.30868C4.22447 6.30868 4.01165 6.09586 4.01165 5.83364C4.01165 5.57142 4.22447 5.3586 4.48669 5.3586C4.74891 5.3586 4.96172 5.57142 4.96172 5.83364C4.96172 6.09586 4.74891 6.30868 4.48669 6.30868M6.07014 1.24161H2.90323C2.37942 1.24161 1.95316 1.66787 1.95316 2.19168V6.62536C1.95316 7.14917 2.37942 7.57543 2.90323 7.57543H6.07014C6.59395 7.57543 7.02022 7.14917 7.02022 6.62536V2.19168C7.02022 1.66787 6.59395 1.24161 6.07014 1.24161" fill="white"/>
</mask>
<g mask="url(#mask0)">
<rect x="0.68639" y="0.608002" width="7.60059" height="7.60059" fill="#5D6488"/>
</g>
</svg>
