<svg width="14" height="14" viewBox="0 0 14 14" fill="none" xmlns="http://www.w3.org/2000/svg">
<g id="Icon/Fill/monitor">
<g id="&#240;&#159;&#142;&#168; Color">
<path id="Mask" fill-rule="evenodd" clip-rule="evenodd" d="M2.91666 1.75H11.0833C12.0482 1.75 12.8333 2.53517 12.8333 3.5V6.41667H1.16666V3.5C1.16666 2.53517 1.95182 1.75 2.91666 1.75ZM2.91666 9.91666C1.95182 9.91666 1.16666 9.1315 1.16666 8.16666V7.58333H12.8333V8.16666C12.8333 9.1315 12.0482 9.91666 11.0833 9.91666H7.58332V11.0833H9.91666C10.2375 11.0833 10.5 11.3458 10.5 11.6667C10.5 11.9875 10.2375 12.25 9.91666 12.25H4.08332C3.76249 12.25 3.49999 11.9875 3.49999 11.6667C3.49999 11.3458 3.76249 11.0833 4.08332 11.0833H6.41666V9.91666H2.91666Z" fill="#5D6488"/>
<mask id="mask0" mask-type="alpha" maskUnits="userSpaceOnUse" x="1" y="1" width="12" height="12">
<path id="Mask_2" fill-rule="evenodd" clip-rule="evenodd" d="M2.91666 1.75H11.0833C12.0482 1.75 12.8333 2.53517 12.8333 3.5V6.41667H1.16666V3.5C1.16666 2.53517 1.95182 1.75 2.91666 1.75ZM2.91666 9.91666C1.95182 9.91666 1.16666 9.1315 1.16666 8.16666V7.58333H12.8333V8.16666C12.8333 9.1315 12.0482 9.91666 11.0833 9.91666H7.58332V11.0833H9.91666C10.2375 11.0833 10.5 11.3458 10.5 11.6667C10.5 11.9875 10.2375 12.25 9.91666 12.25H4.08332C3.76249 12.25 3.49999 11.9875 3.49999 11.6667C3.49999 11.3458 3.76249 11.0833 4.08332 11.0833H6.41666V9.91666H2.91666Z" fill="white"/>
</mask>
<g mask="url(#mask0)">
<g id="&#240;&#159;&#142;&#168; Color_2">
<rect id="Base" width="14" height="14" fill="#5D6488"/>
</g>
</g>
</g>
</g>
</svg>
