<svg width="14" height="14" viewBox="0 0 14 14" fill="none" xmlns="http://www.w3.org/2000/svg">
<path d="M12.9916 5.344C12.9904 5.3272 12.9886 5.3092 12.9868 5.2912C12.8812 3.7264 11.569 2.5 10 2.5H4C2.3926 2.5 1.0852 3.7456 1.0078 5.3422C1.0018 5.3896 1 5.4388 1 5.494V9.4C1 9.955 1.2238 10.4968 1.6132 10.8856C2.0032 11.2762 2.545 11.5 3.1 11.5C4.18 11.5 4.6024 10.9 5.2 9.7C5.2876 9.5248 5.7952 8.5 7 8.5C8.1976 8.5 8.7118 9.5242 8.8 9.7C9.4024 10.9 9.82 11.5 10.9 11.5C11.455 11.5 11.9968 11.2762 12.3856 10.8868C12.7762 10.4968 13 9.955 13 9.4V5.5C13 5.443 12.9976 5.392 12.9916 5.344ZM4 6.7186C3.337 6.7186 2.8 6.1816 2.8 5.5186C2.8 4.8556 3.337 4.3186 4 4.3186C4.663 4.3186 5.2 4.8556 5.2 5.5186C5.2 6.1816 4.663 6.7186 4 6.7186ZM10 3.7186C10.3318 3.7186 10.6 3.9868 10.6 4.3186C10.6 4.6504 10.3318 4.9186 10 4.9186C9.6682 4.9186 9.4 4.6504 9.4 4.3186C9.4 3.9868 9.6682 3.7186 10 3.7186ZM8.8 6.1186C8.4682 6.1186 8.2 5.8504 8.2 5.5186C8.2 5.1868 8.4682 4.9186 8.8 4.9186C9.1318 4.9186 9.4 5.1868 9.4 5.5186C9.4 5.8504 9.1318 6.1186 8.8 6.1186ZM10 7.3186C9.6682 7.3186 9.4 7.0504 9.4 6.7186C9.4 6.3868 9.6682 6.1186 10 6.1186C10.3318 6.1186 10.6 6.3868 10.6 6.7186C10.6 7.0504 10.3318 7.3186 10 7.3186ZM11.2 6.1186C10.8682 6.1186 10.6 5.8504 10.6 5.5186C10.6 5.1868 10.8682 4.9186 11.2 4.9186C11.5318 4.9186 11.8 5.1868 11.8 5.5186C11.8 5.8504 11.5318 6.1186 11.2 6.1186Z" fill="#5D6488"/>
</svg>
